<svg width="38" height="38" viewBox="0 0 38 38" fill="none" xmlns="http://www.w3.org/2000/svg">
<path d="M19 3.7998C10.6058 3.7998 3.80005 10.6056 3.80005 18.9998C3.80005 21.8513 4.60101 24.5099 5.96724 26.7903L3.93612 34.1998L11.504 32.2132C13.7172 33.4715 16.2723 34.1998 19 34.1998C27.3942 34.1998 34.2 27.394 34.2 18.9998C34.2 10.6056 27.3942 3.7998 19 3.7998ZM13.7973 11.9094C14.0443 11.9094 14.2981 11.9079 14.5172 11.9193C14.7883 11.9257 15.0833 11.9455 15.3658 12.57C15.7015 13.3123 16.4324 15.1744 16.5261 15.3631C16.6198 15.5518 16.6862 15.7742 16.5558 16.0212C16.4316 16.2745 16.3671 16.4278 16.1847 16.652C15.996 16.8699 15.7891 17.1405 15.6181 17.3051C15.4294 17.4939 15.2345 17.7008 15.4524 18.077C15.6703 18.4532 16.4269 19.6865 17.5454 20.6821C18.983 21.9665 20.196 22.3612 20.5735 22.5499C20.951 22.7387 21.1696 22.7093 21.3874 22.4559C21.6116 22.2089 22.329 21.3614 22.5823 20.9839C22.8293 20.6065 23.0815 20.6718 23.4235 20.7959C23.7706 20.92 25.6214 21.8318 25.9989 22.0205C26.3763 22.2092 26.6238 22.3027 26.7188 22.4559C26.8163 22.6143 26.8164 23.368 26.5036 24.2471C26.1907 25.1249 24.6543 25.9737 23.9653 26.0333C23.2699 26.0979 22.6209 26.3458 19.4454 25.0956C15.615 23.587 13.1993 19.6638 13.0106 19.4105C12.8219 19.1635 11.4767 17.3708 11.4767 15.5214C11.4767 13.6658 12.4497 12.757 12.7904 12.3795C13.1375 12.002 13.544 11.9094 13.7973 11.9094Z" fill="black"/>
</svg>
