<svg width="38" height="38" viewBox="0 0 38 38" fill="none" xmlns="http://www.w3.org/2000/svg">
<path d="M13.0625 3.9585C8.04258 3.9585 3.95837 8.0427 3.95837 13.0627V24.9377C3.95837 29.9576 8.04258 34.0418 13.0625 34.0418H24.9375C29.9575 34.0418 34.0417 29.9576 34.0417 24.9377V13.0627C34.0417 8.0427 29.9575 3.9585 24.9375 3.9585H13.0625ZM26.9167 9.50016C27.7915 9.50016 28.5 10.2087 28.5 11.0835C28.5 11.9575 27.7915 12.6668 26.9167 12.6668C26.0419 12.6668 25.3334 11.9575 25.3334 11.0835C25.3334 10.2087 26.0419 9.50016 26.9167 9.50016ZM19 11.0835C23.3653 11.0835 26.9167 14.6349 26.9167 19.0002C26.9167 23.3654 23.3653 26.9168 19 26.9168C14.6348 26.9168 11.0834 23.3654 11.0834 19.0002C11.0834 14.6349 14.6348 11.0835 19 11.0835ZM19 13.4585C18.2723 13.4585 17.5517 13.6018 16.8793 13.8803C16.207 14.1588 15.5961 14.567 15.0815 15.0816C14.5669 15.5962 14.1587 16.2071 13.8802 16.8795C13.6017 17.5518 13.4584 18.2724 13.4584 19.0002C13.4584 19.7279 13.6017 20.4485 13.8802 21.1209C14.1587 21.7932 14.5669 22.4041 15.0815 22.9187C15.5961 23.4333 16.207 23.8415 16.8793 24.12C17.5517 24.3985 18.2723 24.5418 19 24.5418C19.7278 24.5418 20.4484 24.3985 21.1207 24.12C21.7931 23.8415 22.404 23.4333 22.9186 22.9187C23.4332 22.4041 23.8414 21.7932 24.1199 21.1209C24.3984 20.4485 24.5417 19.7279 24.5417 19.0002C24.5417 18.2724 24.3984 17.5518 24.1199 16.8795C23.8414 16.2071 23.4332 15.5962 22.9186 15.0816C22.404 14.567 21.7931 14.1588 21.1207 13.8803C20.4484 13.6018 19.7278 13.4585 19 13.4585Z" fill="black"/>
</svg>
